HIERARCHY
ROOT Hips
{
  OFFSET 0 0 0
  CHANNELS 6 Xposition Yposition Zposition Zrotation Xrotation Yrotation
  JOINT Spine
  {
    OFFSET 0 10.1816 0.131521
    CHANNELS 3 Zrotation Xrotation Yrotation
    JOINT Spine1
    {
      OFFSET 0 10.0835 -1.0008
      CHANNELS 3 Zrotation Xrotation Yrotation
      JOINT Spine2
      {
        OFFSET 0 9.10001 -1.37342
        CHANNELS 3 Zrotation Xrotation Yrotation
        JOINT Neck
        {
          OFFSET 0 16.6717 -2.51617
          CHANNELS 3 Zrotation Xrotation Yrotation
          JOINT Head
          {
            OFFSET 0 9.61788 1.68501
            CHANNELS 3 Zrotation Xrotation Yrotation
            End Site
            {
              OFFSET 0 0 0
            }
          }
        }
        JOINT LeftShoulder
        {
          OFFSET 4.57045 10.946 -2.62799
          CHANNELS 3 Zrotation Xrotation Yrotation
          JOINT LeftArm
          {
            OFFSET 10.5924 -0.524583 -2.23212
            CHANNELS 3 Zrotation Xrotation Yrotation
            JOINT LeftForeArm
            {
              OFFSET 27.8415 -8.94286e-05 3.74589e-05
              CHANNELS 3 Zrotation Xrotation Yrotation
              JOINT LeftHand
              {
                OFFSET 28.3288 -1.74407e-05 3.78045e-05
                CHANNELS 3 Zrotation Xrotation Yrotation
                End Site
                {
                  OFFSET 0 0 0
                }
              }
            }
          }
        }
        JOINT RightShoulder
        {
          OFFSET -4.56997 10.9462 -2.62802
          CHANNELS 3 Zrotation Xrotation Yrotation
          JOINT RightArm
          {
            OFFSET -10.5928 -0.524798 -2.2321
            CHANNELS 3 Zrotation Xrotation Yrotation
            JOINT RightForeArm
            {
              OFFSET -27.8415 -3.30792e-05 1.16763e-05
              CHANNELS 3 Zrotation Xrotation Yrotation
              JOINT RightHand
              {
                OFFSET -28.3288 0 5.5816e-05
                CHANNELS 3 Zrotation Xrotation Yrotation
                End Site
                {
                  OFFSET 0 0 0
                }
              }
            }
          }
        }
      }
    }
  }
  JOINT LeftUpLeg
  {
    OFFSET 8.20778 -6.75171 -1.59956
    CHANNELS 3 Zrotation Xrotation Yrotation
    JOINT LeftLeg
    {
      OFFSET 0 -44.3705 0.284643
      CHANNELS 3 Zrotation Xrotation Yrotation
      JOINT LeftFoot
      {
        OFFSET 0 -44.4279 -2.98219
        CHANNELS 3 Zrotation Xrotation Yrotation
        JOINT LeftToeBase
        {
          OFFSET 0 -8.72867 10.7106
          CHANNELS 3 Zrotation Xrotation Yrotation
          End Site
          {
            OFFSET 0 0 0
          }
        }
      }
    }
  }
  JOINT RightUpLeg
  {
    OFFSET -8.2078 -6.75166 -1.59956
    CHANNELS 3 Zrotation Xrotation Yrotation
    JOINT RightLeg
    {
      OFFSET 0 -44.3705 0.286156
      CHANNELS 3 Zrotation Xrotation Yrotation
      JOINT RightFoot
      {
        OFFSET 0 -44.4277 -2.98379
        CHANNELS 3 Zrotation Xrotation Yrotation
        JOINT RightToeBase
        {
          OFFSET 0 -8.72867 10.7106
          CHANNELS 3 Zrotation Xrotation Yrotation
          End Site
          {
            OFFSET 0 0 0
          }
        }
      }
    }
  }
}
MOTION
Frames:	11
Frame Time:	0.0333333
-7.04852 90.3141 -10.727 1.22703 -3.89375 -33.7545 -1.39493 10.9937 6.87995 -1.37001 3.16328 1.04733 -1.34125 3.1817 1.03888 3.5925 1.04881 12.6148 0.809256 3.66338 14.6237 -9.54105 1.48199 1.48642 -68.7336 -28.09 -46.0367 -0.000201524 -1.93836e-05 -108.517 -13.6168 3.95721 -7.67395 -6.10949 1.16949 14.6426 64.8917 10.2469 54.7856 4.66708e-05 -1.04106e-05 99.8208 8.78472 -1.89845 21.3227 20.3771 -33.2043 16.7213 12.9599 48.0049 -19.1234 -19.5125 -0.345561 -15.3546 0.152223 -9.616 0.0252182 -21.0312 -16.3256 -20.6534 3.82239 58.8189 -12.827 16.7066 -32.0891 -2.57205 9.29082e-06 -0.462119 2.45156e-06 
-7.12796 90.2814 -10.4882 0.875503 -4.52109 -34.1151 -0.825824 11.0579 6.73131 -1.45965 3.36891 1.07703 -1.43018 3.38853 1.06453 3.53885 1.27547 12.6592 0.275729 4.03499 15.2742 -9.50252 1.22333 2.28785 -68.4148 -27.2378 -44.7409 -0.000274035 4.31568e-06 -106.429 -15.4664 6.32223 -7.22011 -5.72765 1.53706 14.9453 65.1305 11.2404 52.8618 3.05176e-05 9.63777e-13 98.4995 9.42238 -1.65152 21.0891 20.8014 -32.727 17.0749 12.9731 48.6542 -19.2545 -19.9289 0.608712 -15.8753 0.267199 -10.2551 0.0468542 -21.4337 -15.3577 -20.9192 3.84908 58.7916 -12.5581 16.8839 -32.1885 -1.76916 -1.14177e-06 -0.363488 2.55681e-05 
-7.11296 91.0107 -9.96661 0.617946 -4.75066 -34.7213 -0.503938 10.6936 6.58819 -1.41497 3.61399 1.09405 -1.38418 3.63285 1.07693 3.47126 1.7252 12.6894 -0.283533 4.52002 15.9951 -9.3738 1.0627 2.67811 -68.0381 -27.8476 -44.5192 -0.000259963 -4.11009e-06 -105.626 -16.6857 7.20317 -6.94138 -5.14148 2.21302 15.6648 65.0104 10.68 52.5331 -6.77848e-11 -5.16246e-12 97.624 9.74083 -2.16446 20.6076 21.2863 -32.0864 17.6351 12.4043 48.6035 -18.8296 -19.96 2.70144 -16.1235 0.400386 -10.3045 0.0700496 -21.048 -14.138 -20.6946 3.00187 56.8155 -11.6599 16.7226 -31.1204 -1.86977 2.78839e-06 -0.43729 2.57166e-05 
-6.92425 92.3113 -9.18383 0.633017 -4.57853 -35.5287 -0.499237 9.98088 6.55271 -1.26789 3.80644 1.10055 -1.23526 3.82345 1.07972 3.37812 2.30572 12.6775 -0.774389 5.13675 16.4589 -9.22941 1.04417 2.58977 -67.9367 -29.6681 -45.287 -0.000215491 -1.29416e-05 -106.422 -16.622 6.0585 -6.98877 -4.65569 2.85268 16.4058 64.7154 9.04424 53.5887 -7.57614e-05 -8.04513e-06 97.5743 9.56699 -3.42866 20.1087 21.3421 -31.4712 17.9638 11.4961 47.9459 -18.0362 -19.6281 5.0894 -15.6835 0.279317 -9.69726 0.0462869 -20.5534 -13.204 -20.248 1.71234 53.7618 -10.9468 16.4309 -28.2661 -2.27064 4.42218e-06 -1.32229 -1.32162e-05 
-6.5158 93.7984 -8.1794 0.913636 -4.0469 -36.6583 -0.716168 9.05073 6.69794 -1.08142 3.89875 1.10898 -1.04605 3.91392 1.08538 3.24268 2.87116 12.6511 -1.19271 5.68335 16.6813 -9.09744 1.11389 2.22602 -68.5088 -32.1366 -47.0108 -0.000243373 4.77966e-06 -108.255 -15.3807 3.50232 -7.15482 -4.44617 3.22612 16.9311 64.4396 6.97434 55.7293 6.11909e-05 -2.17469e-06 98.1937 9.09199 -5.07557 19.6365 20.8976 -30.8675 17.9671 10.4904 46.8988 -17.0943 -19.0973 6.66176 -14.4598 1.7224e-06 -8.86431 -4.88772e-07 -20.3574 -12.9489 -19.9146 0.504753 50.7072 -10.5685 16.1718 -24.1294 -2.4251 5.30732e-07 -2.36401 3.34405e-06 
-5.91986 95.0247 -7.0164 1.26725 -3.26731 -38.2666 -0.966449 8.06271 7.01025 -0.921174 3.89386 1.12845 -0.882169 3.90802 1.10214 3.09414 3.28534 12.6642 -1.62558 5.913 16.9922 -8.95069 1.15794 1.93995 -69.6929 -34.5307 -49.4223 -0.000244141 -2.21404e-12 -110.094 -13.7176 0.770833 -7.25953 -4.44947 3.36616 17.2323 64.1774 4.96814 58.7361 -1.52588e-05 -1.08162e-15 98.8674 8.65629 -6.53318 19.1541 20.3226 -30.0897 17.9138 9.50216 45.7021 -16.1677 -18.6037 6.64203 -12.7075 2.61548e-06 -8.45399 -1.19143e-05 -20.5075 -13.3886 -19.864 -0.541779 48.4078 -9.91538 16.156 -20.2626 -2.03239 0.192308 -2.65907 0.00855878 
-5.21386 95.6123 -5.74929 1.4559 -2.42801 -40.3388 -1.08798 7.20929 7.39527 -0.82566 3.78833 1.15244 -0.783288 3.8026 1.12353 3.02965 3.46885 12.7409 -2.18935 5.81778 17.7151 -8.75465 1.08736 2.00214 -70.7938 -36.2089 -51.7598 -0.000199378 -5.46819e-06 -111 -12.465 -1.0533 -7.41646 -4.47544 3.43974 17.3185 63.8258 3.43887 62.2403 -1.50723e-05 -2.37826e-06 98.9668 8.42603 -7.41786 18.7747 20.0428 -28.993 18.1118 8.5961 44.6375 -15.3864 -18.275 4.68848 -10.9382 -1.96793e-06 -8.45818 1.494e-05 -20.7823 -14.2524 -20.0586 -1.69582 47.2068 -9.04811 16.5598 -17.9455 -0.610776 0.152225 -1.79678 0.00452634 
-4.46377 95.3598 -4.41415 1.3429 -1.73505 -42.567 -1.02996 6.69423 7.7214 -0.787243 3.54187 1.16034 -0.743954 3.55697 1.13063 3.16421 3.38984 12.855 -2.9227 5.67946 18.8617 -8.51561 0.90435 2.42036 -71.0123 -36.8831 -53.1107 -0.00021459 -5.34465e-06 -110.504 -12.0482 -1.38266 -7.76241 -4.42186 3.49802 17.0226 63.4206 2.88757 65.4684 4.52937e-05 6.62988e-06 98.3275 8.31335 -7.7295 18.8352 20.1654 -27.7114 18.5766 7.88336 44.1996 -14.8181 -17.8252 0.562323 -9.75269 0.150072 -8.40822 0.0217287 -21.0556 -15.1349 -20.3487 -3.09254 47.0529 -7.7888 17.4564 -17.6929 1.32401 2.79243e-06 -0.428741 -1.23387e-05 
-3.71475 94.3187 -3.08827 0.982118 -1.35786 -44.4579 -0.923336 6.66387 7.87858 -0.76045 3.1268 1.13273 -0.720514 3.14244 1.10574 3.53842 3.04162 12.9639 -3.70445 5.79696 20.125 -8.28758 0.689462 2.97246 -70.2366 -36.6503 -53.1219 -0.000260211 -4.9105e-06 -108.773 -12.426 -0.106233 -8.07804 -4.36549 3.40313 16.0981 63.1727 3.8143 67.3685 6.1793e-05 -1.17555e-05 97.3772 8.1869 -7.64276 19.6686 20.4303 -26.685 19.0269 7.48362 44.9629 -14.4004 -16.7388 -5.54655 -9.37321 0.364879 -7.31447 0.0451308 -21.4671 -15.7981 -20.6319 -4.5684 47.8071 -5.77929 18.7969 -19.2271 2.60996 1.0883e-06 0.425203 -2.95471e-05 
-3.01842 92.8326 -1.91969 0.585916 -1.38424 -45.6389 -1.02788 7.11166 7.83914 -0.700106 2.60719 1.06827 -0.667441 2.62199 1.04714 4.05795 2.47024 13.0515 -4.29898 6.18696 21.1318 -8.13528 0.52618 3.4219 -69.1324 -35.8509 -52.1591 -0.000167847 -1.38998e-12 -106.595 -13.375 2.33614 -7.92596 -4.44617 3.02042 14.5429 63.2353 6.2975 67.1529 1.49382e-05 5.40817e-06 96.785 8.0904 -7.18967 21.2476 20.4972 -26.2033 19.1746 7.38855 46.784 -14.205 -15.3251 -12.4202 -9.49806 0.0709453 -4.6918 0.00574789 -22.2062 -16.1705 -20.8671 -5.90096 49.1417 -3.67518 20.6864 -21.5554 3.2749 -2.47004e-06 0.10062 1.25452e-05 
-2.42168 91.358 -1.02096 0.323982 -1.70584 -46.1163 -1.4376 7.82978 7.68114 -0.606144 2.14617 0.988716 -0.581717 2.15867 0.973912 4.52759 1.82432 13.1302 -4.54015 6.59174 21.6906 -8.08848 0.440881 3.69976 -68.4614 -34.9454 -50.7992 -0.000199415 -7.94037e-06 -105.081 -14.6502 4.868 -7.14168 -4.67368 2.45005 12.8027 63.5041 9.64559 64.901 4.55547e-05 3.6713e-06 96.9095 8.17846 -6.26297 23.054 20.488 -26.8902 19.0709 7.61333 50.2608 -14.3219 -14.5215 -17.6497 -9.82023 -3.77061e-06 -1.88562 2.42282e-08 -23.2086 -16.4342 -21.0693 -7.09264 50.7443 -2.01491 22.8344 -23.4877 3.71587 -3.63112e-06 -0.864512 -3.36619e-05 
